<?xml version="1.0" encoding="utf-8"?>
<!-- Generator: Adobe Illustrator 21.0.2, SVG Export Plug-In . SVG Version: 6.00 Build 0)  -->
<svg version="1.1" id="Layer_1" xmlns="http://www.w3.org/2000/svg" xmlns:xlink="http://www.w3.org/1999/xlink" x="0px" y="0px"
	 viewBox="0 0 225 61" style="enable-background:new 0 0 225 61;" xml:space="preserve">
<style type="text/css">
	.st0{fill:#4C4C4D;}
</style>
<g>
	<g>
		<path class="st0" d="M104.3,18.9c0,3.1-0.6,5.9-1.8,8.1c-1.2,2.3-2.8,4.2-4.7,5.6s-4.1,2.5-6.5,3.2s-4.8,1.1-7.3,1.1H70.7v-36
			h13.1c2.5,0,5,0.2,7.5,0.8c2.5,0.6,4.7,1.6,6.6,3c1.9,1.3,3.5,3.2,4.7,5.5C103.7,12.6,104.3,15.5,104.3,18.9z M95.2,18.9
			c0-2-0.4-3.7-1-5c-0.7-1.3-1.6-2.4-2.6-3.2c-1.1-0.8-2.4-1.3-3.7-1.7c-1.4-0.4-2.9-0.5-4.3-0.5h-4.3v21.1h4.1
			c1.6,0,3.1-0.1,4.6-0.5c1.4-0.4,2.8-1,3.8-1.8c1.1-0.8,2-1.9,2.6-3.2C94.9,22.6,95.2,20.9,95.2,18.9z"/>
		<path class="st0" d="M124.2,8.3v28.6h-8.7V8.3h-10.2V0.9h29v7.4L124.2,8.3z"/>
		<path class="st0" d="M159.7,36.9l-2.8-7.1h-14l-2.6,7.1h-9.5l15.1-36h8.4l15.1,36H159.7z M149.9,10.6l-4.6,12.3h9.1L149.9,10.6z"
			/>
		<path class="st0" d="M172.3,36.9v-36h8.7v28.4H195v7.7H172.3z"/>
		<path class="st0" d="M199.1,36.9v-36h24.2v7.3h-15.8V15h15V22h-15v7.4h16.8v7.5H199.1z"/>
	</g>
	<g>
		<path class="st0" d="M70.7,47.1h4.6c0.8,0,1.7,0.1,2.5,0.4s1.6,0.6,2.3,1.2c0.7,0.5,1.2,1.2,1.7,2c0.5,0.8,0.6,1.8,0.6,3
			c0,1.1-0.2,2.2-0.6,3c-0.5,0.8-1,1.6-1.7,2c-0.7,0.6-1.4,1-2.3,1.2c-0.8,0.2-1.7,0.4-2.5,0.4h-4.6V47.1z M72.5,58.7h2.3
			c0.8,0,1.6-0.1,2.3-0.4c0.7-0.2,1.3-0.6,1.8-1c0.5-0.5,0.8-1,1.2-1.6c0.2-0.6,0.4-1.3,0.4-2.2s-0.1-1.6-0.4-2.2
			c-0.2-0.6-0.6-1.2-1.2-1.6c-0.5-0.4-1.1-0.7-1.8-1c-0.7-0.2-1.4-0.4-2.3-0.4h-2.3V58.7z"/>
		<path class="st0" d="M87.7,58.7h6.9v1.7h-8.7V47.1h8.5v1.7h-6.6v4H94v1.6h-6.2L87.7,58.7L87.7,58.7z"/>
		<path class="st0" d="M104.6,49.6c-0.2-0.4-0.6-0.6-1.1-0.8s-1-0.4-1.6-0.4c-0.4,0-0.6,0-1,0.1s-0.6,0.2-0.8,0.4
			c-0.2,0.2-0.5,0.4-0.6,0.7c-0.1,0.2-0.2,0.6-0.2,1s0.1,0.7,0.2,1c0.1,0.2,0.4,0.5,0.6,0.6c0.2,0.1,0.5,0.4,0.8,0.5
			c0.4,0.1,0.7,0.2,1.1,0.4c0.5,0.1,1,0.2,1.3,0.5c0.5,0.1,0.8,0.4,1.2,0.7c0.4,0.4,0.7,0.6,1,1.1c0.2,0.5,0.4,1,0.4,1.7
			s-0.1,1.3-0.4,1.8c-0.2,0.5-0.6,1-1.1,1.2c-0.5,0.4-1,0.6-1.4,0.7c-0.6,0.1-1.1,0.2-1.7,0.2c-0.8,0-1.7-0.1-2.4-0.5
			c-0.8-0.4-1.4-0.8-1.9-1.4l1.4-1.2c0.4,0.5,0.7,0.8,1.2,1.1c0.5,0.2,1.1,0.5,1.7,0.5c0.4,0,0.6,0,1-0.1c0.4-0.1,0.6-0.2,0.8-0.4
			c0.2-0.2,0.5-0.5,0.6-0.7c0.1-0.2,0.2-0.6,0.2-1.1c0-0.4-0.1-0.7-0.2-1c-0.1-0.2-0.4-0.5-0.7-0.7c-0.2-0.2-0.6-0.4-1-0.5
			c-0.4-0.1-0.8-0.2-1.2-0.4c-0.5-0.1-0.8-0.2-1.2-0.5c-0.4-0.2-0.8-0.4-1.1-0.7c-0.4-0.2-0.6-0.6-0.8-1.1c-0.2-0.4-0.4-1-0.4-1.6
			c0-0.7,0.1-1.2,0.4-1.7c0.2-0.5,0.6-0.8,1.1-1.2c0.5-0.4,1-0.6,1.4-0.7c0.6-0.1,1.1-0.2,1.7-0.2c0.7,0,1.6,0.1,2.2,0.4
			c0.7,0.2,1.2,0.6,1.7,1.1L104.6,49.6z"/>
		<path class="st0" d="M111.5,60.4h-1.8V47.1h1.8V60.4z"/>
		<path class="st0" d="M125.6,49.9c-0.4-0.5-1-0.8-1.6-1.1s-1.3-0.4-2-0.4c-0.7,0-1.4,0.1-2.2,0.5c-0.6,0.2-1.2,0.7-1.6,1.2
			c-0.5,0.5-0.7,1.1-1,1.7c-0.2,0.6-0.4,1.2-0.4,1.9c0,0.7,0.1,1.4,0.4,2c0.2,0.6,0.6,1.2,1,1.7c0.5,0.5,1,0.8,1.6,1.1
			c0.6,0.2,1.3,0.4,2.2,0.4c0.6,0,1.2,0,1.7-0.1c0.5-0.1,1-0.2,1.3-0.5v-3.7h-3V53h4.8v6.5c-0.7,0.4-1.4,0.7-2.3,0.8
			c-0.8,0.2-1.7,0.2-2.8,0.2s-2-0.1-2.9-0.5c-0.8-0.4-1.6-0.8-2.3-1.4c-0.6-0.6-1.1-1.3-1.4-2.2c-0.4-0.8-0.5-1.8-0.5-2.9
			s0.1-2,0.5-2.9s0.8-1.6,1.4-2.2c0.6-0.6,1.3-1.1,2.3-1.4c0.8-0.4,1.8-0.5,2.8-0.5c1.1,0,2,0.1,2.9,0.5c0.8,0.4,1.6,0.7,2,1.2
			L125.6,49.9z"/>
		<path class="st0" d="M140.5,57.8L140.5,57.8V47.2h1.8v13.3h-2.4l-6.9-10.8l0,0v10.8h-1.8V47.1h2.4L140.5,57.8z"/>
		<path class="st0" d="M158.7,49.6c-0.2-0.4-0.6-0.6-1.1-0.8c-0.5-0.2-1-0.4-1.6-0.4c-0.4,0-0.6,0-1,0.1s-0.6,0.2-0.8,0.4
			c-0.2,0.2-0.5,0.4-0.6,0.7c-0.1,0.2-0.2,0.6-0.2,1s0.1,0.7,0.2,1c0.1,0.2,0.4,0.5,0.6,0.6s0.5,0.4,0.8,0.5
			c0.4,0.1,0.7,0.2,1.1,0.4c0.5,0.1,1,0.2,1.3,0.5c0.5,0.1,0.8,0.4,1.2,0.7c0.4,0.2,0.7,0.6,1,1.1c0.2,0.5,0.4,1,0.4,1.7
			s-0.1,1.3-0.4,1.8c-0.2,0.5-0.6,1-1.1,1.2c-0.5,0.4-1,0.6-1.4,0.7c-0.6,0.1-1.1,0.2-1.7,0.2c-0.8,0-1.7-0.1-2.4-0.5
			c-0.8-0.4-1.4-0.8-1.9-1.4l1.4-1.2c0.4,0.5,0.7,0.8,1.2,1.1s1.1,0.5,1.7,0.5c0.4,0,0.6,0,1-0.1s0.6-0.2,0.8-0.4
			c0.2-0.2,0.5-0.5,0.6-0.7c0.1-0.2,0.2-0.6,0.2-1.1c0-0.4-0.1-0.7-0.2-1c-0.1-0.2-0.4-0.5-0.7-0.7c-0.2-0.2-0.6-0.4-1-0.5
			c-0.4-0.1-0.8-0.2-1.2-0.4c-0.5-0.1-0.8-0.2-1.2-0.5c-0.4-0.2-0.8-0.4-1.1-0.7c-0.4-0.2-0.6-0.6-0.8-1.1c-0.2-0.4-0.4-1-0.4-1.6
			c0-0.7,0.1-1.2,0.4-1.7c0.2-0.5,0.6-0.8,1.1-1.2c0.5-0.4,1-0.6,1.4-0.7c0.6-0.1,1.1-0.2,1.7-0.2c0.7,0,1.6,0.1,2.2,0.4
			c0.7,0.2,1.2,0.6,1.7,1.1L158.7,49.6z"/>
		<path class="st0" d="M168,60.4h-1.8V48.8H162v-1.7h10.3v1.7h-4.2L168,60.4L168,60.4z"/>
		<path class="st0" d="M180,60.8c-0.8,0-1.7-0.1-2.3-0.5c-0.6-0.2-1.2-0.7-1.6-1.2c-0.5-0.5-0.7-1.1-1-1.7c-0.2-0.6-0.4-1.3-0.4-1.9
			v-8.4h1.8v8.3c0,0.5,0,0.8,0.1,1.3c0.1,0.5,0.2,0.8,0.6,1.2c0.2,0.4,0.6,0.6,1,0.8s1,0.4,1.6,0.4c0.6,0,1.1-0.1,1.6-0.4
			c0.5-0.2,0.7-0.5,1.1-0.8c0.2-0.4,0.5-0.7,0.6-1.2c0.1-0.5,0.1-0.8,0.1-1.3v-8.3h1.8v8.4c0,0.7-0.1,1.3-0.4,1.9
			c-0.2,0.6-0.5,1.2-1,1.7c-0.5,0.5-1,0.8-1.6,1.2C181.7,60.5,181,60.8,180,60.8z"/>
		<path class="st0" d="M189.2,47.1h4.6c0.8,0,1.7,0.1,2.5,0.4s1.6,0.6,2.3,1.2c0.7,0.5,1.2,1.2,1.7,2c0.5,0.8,0.6,1.8,0.6,3
			c0,1.1-0.2,2.2-0.6,3c-0.5,0.8-1,1.6-1.7,2c-0.7,0.6-1.4,1-2.3,1.2c-0.8,0.2-1.7,0.4-2.5,0.4h-4.6L189.2,47.1z M191.1,58.7h2.3
			c0.8,0,1.6-0.1,2.3-0.4c0.7-0.2,1.3-0.6,1.8-1c0.5-0.5,0.8-1,1.2-1.6c0.2-0.6,0.4-1.3,0.4-2.2s-0.1-1.6-0.4-2.2
			c-0.2-0.6-0.6-1.2-1.2-1.6c-0.5-0.4-1.1-0.7-1.8-1c-0.7-0.2-1.4-0.4-2.3-0.4h-2.3V58.7z"/>
		<path class="st0" d="M206.4,60.4h-1.9V47.1h1.8L206.4,60.4L206.4,60.4z"/>
		<path class="st0" d="M223.8,53.7c0,1.1-0.1,1.9-0.5,2.9c-0.4,0.8-0.8,1.6-1.4,2.2c-0.6,0.6-1.3,1.1-2.3,1.4
			c-0.8,0.4-1.8,0.5-2.8,0.5s-1.9-0.1-2.8-0.5c-0.8-0.4-1.6-0.8-2.3-1.4c-0.6-0.6-1.1-1.3-1.4-2.2s-0.5-1.8-0.5-2.9s0.1-2,0.5-2.9
			c0.4-0.8,0.8-1.6,1.4-2.2c0.6-0.6,1.3-1.1,2.3-1.4c0.8-0.4,1.8-0.5,2.8-0.5s1.9,0.1,2.8,0.5c0.8,0.4,1.6,0.8,2.3,1.4
			c0.6,0.6,1.1,1.3,1.4,2.2C223.6,51.8,223.8,52.8,223.8,53.7z M221.8,53.7c0-0.7-0.1-1.4-0.4-2c-0.2-0.6-0.6-1.2-1-1.7
			c-0.5-0.5-1-0.8-1.6-1.2c-0.6-0.2-1.3-0.5-2-0.5c-0.7,0-1.4,0.1-2,0.5c-0.6,0.2-1.2,0.7-1.6,1.2c-0.5,0.5-0.7,1.1-1,1.7
			c-0.2,0.6-0.4,1.3-0.4,2c0,0.7,0.1,1.4,0.4,2c0.2,0.6,0.6,1.2,1,1.7c0.5,0.5,1,0.8,1.6,1.1c0.6,0.2,1.3,0.4,2,0.4
			c0.7,0,1.4-0.1,2-0.4s1.2-0.6,1.6-1.1c0.5-0.5,0.7-1.1,1-1.7C221.7,55.1,221.8,54.5,221.8,53.7z"/>
	</g>
</g>
<path class="st0" d="M48.1,30.5c0,3.7-0.7,6.9-2.1,9.6s-3.3,4.9-5.5,6.6c-2.3,1.7-4.8,3-7.6,3.8c-2.8,0.8-5.7,1.3-8.6,1.3H8.4V9.3
	h15.4c3,0,5.9,0.3,8.9,1s5.5,1.8,7.8,3.5c2.3,1.6,4.1,3.8,5.5,6.5C47.4,23.2,48.1,26.6,48.1,30.5z"/>
<path class="st0" d="M53.5,0.7H3.8H0.5V4v52.9v3.3h3.3h49.8h3.3v-3.3V4V0.7H53.5z M53.5,56.8H3.8V4h49.8V56.8z"/>
</svg>
